<svg width="700" height="484" viewBox="0 0 700 484" fill="none" xmlns="http://www.w3.org/2000/svg">
<path d="M649.428 297.5H43.5625V481.5H649.428V297.5Z" stroke="black" stroke-width="4" stroke-miterlimit="10"/>
<path d="M657.939 287H36.0508V296H657.939V287Z" stroke="black" stroke-width="4" stroke-miterlimit="10"/>
<path d="M0 482H700" stroke="black" stroke-width="4" stroke-miterlimit="10"/>
<path d="M182.26 227H292.417" stroke="black" stroke-width="4" stroke-miterlimit="10"/>
<path d="M403.576 227H517.739" stroke="black" stroke-width="4" stroke-miterlimit="10"/>
<path d="M523.838 238H425.697L491.311 268H205.653L269.885 238H177.192L47.0664 280L647.925 279L523.838 238Z" stroke="black" stroke-width="4" stroke-miterlimit="10"/>
<path d="M347.516 201L208.297 267" stroke="black" stroke-width="4" stroke-miterlimit="10"/>
<path d="M345.674 201L483.691 265" stroke="black" stroke-width="4" stroke-miterlimit="10"/>
<path d="M460.628 446.13C460.357 438.28 454.429 432 447.138 432C439.848 432 433.91 438.28 433.649 446.13H433.619V482H460.658V446.13H460.628Z" stroke="black" stroke-width="4" stroke-miterlimit="10"/>
<path d="M359.483 62.43C359.213 55.52 353.284 50 345.994 50C338.704 50 332.765 55.53 332.505 62.43H332.475V94H359.513V62.43H359.483Z" stroke="black" stroke-width="4" stroke-miterlimit="10"/>
<path d="M260.343 446.13C260.072 438.28 254.144 432 246.853 432C239.563 432 233.624 438.28 233.364 446.13H233.334V482H260.373V446.13H260.343Z" stroke="black" stroke-width="4" stroke-miterlimit="10"/>
<path d="M45.0645 419H648.927" stroke="black" stroke-width="4" stroke-miterlimit="10"/>
<path d="M270.387 470H422.604" stroke="black" stroke-width="4" stroke-miterlimit="10"/>
<path d="M270.387 458H422.604" stroke="black" stroke-width="4" stroke-miterlimit="10"/>
<path d="M270.387 446H422.604" stroke="black" stroke-width="4" stroke-miterlimit="10"/>
<path d="M270.387 435H422.604" stroke="black" stroke-width="4" stroke-miterlimit="10"/>
<path d="M82.1166 428H66.0938V456H82.1166V428Z" stroke="black" stroke-width="4" stroke-miterlimit="10"/>
<path d="M123.175 428H107.152V456H123.175V428Z" stroke="black" stroke-width="4" stroke-miterlimit="10"/>
<path d="M165.236 428H149.213V456H165.236V428Z" stroke="black" stroke-width="4" stroke-miterlimit="10"/>
<path d="M206.294 428H190.271V456H206.294V428Z" stroke="black" stroke-width="4" stroke-miterlimit="10"/>
<path d="M504.72 428H488.697V456H504.72V428Z" stroke="black" stroke-width="4" stroke-miterlimit="10"/>
<path d="M545.781 428H529.758V456H545.781V428Z" stroke="black" stroke-width="4" stroke-miterlimit="10"/>
<path d="M587.839 428H571.816V456H587.839V428Z" stroke="black" stroke-width="4" stroke-miterlimit="10"/>
<path d="M628.898 428H612.875V456H628.898V428Z" stroke="black" stroke-width="4" stroke-miterlimit="10"/>
<path d="M504.72 381H488.697V409H504.72V381Z" stroke="black" stroke-width="4" stroke-miterlimit="10"/>
<path d="M545.781 381H529.758V409H545.781V381Z" stroke="black" stroke-width="4" stroke-miterlimit="10"/>
<path d="M587.839 381H571.816V409H587.839V381Z" stroke="black" stroke-width="4" stroke-miterlimit="10"/>
<path d="M628.898 381H612.875V409H628.898V381Z" stroke="black" stroke-width="4" stroke-miterlimit="10"/>
<path d="M504.72 314H488.697V342H504.72V314Z" stroke="black" stroke-width="4" stroke-miterlimit="10"/>
<path d="M545.781 314H529.758V342H545.781V314Z" stroke="black" stroke-width="4" stroke-miterlimit="10"/>
<path d="M587.839 314H571.816V342H587.839V314Z" stroke="black" stroke-width="4" stroke-miterlimit="10"/>
<path d="M628.898 314H612.875V342H628.898V314Z" stroke="black" stroke-width="4" stroke-miterlimit="10"/>
<path d="M82.1166 381H66.0938V409H82.1166V381Z" stroke="black" stroke-width="4" stroke-miterlimit="10"/>
<path d="M123.175 381H107.152V409H123.175V381Z" stroke="black" stroke-width="4" stroke-miterlimit="10"/>
<path d="M165.236 381H149.213V409H165.236V381Z" stroke="black" stroke-width="4" stroke-miterlimit="10"/>
<path d="M206.294 381H190.271V409H206.294V381Z" stroke="black" stroke-width="4" stroke-miterlimit="10"/>
<path d="M82.1166 314H66.0938V342H82.1166V314Z" stroke="black" stroke-width="4" stroke-miterlimit="10"/>
<path d="M123.175 314H107.152V342H123.175V314Z" stroke="black" stroke-width="4" stroke-miterlimit="10"/>
<path d="M165.236 314H149.213V342H165.236V314Z" stroke="black" stroke-width="4" stroke-miterlimit="10"/>
<path d="M206.294 314H190.271V342H206.294V314Z" stroke="black" stroke-width="4" stroke-miterlimit="10"/>
<path d="M480.687 407H464.664V419H480.687V407Z" stroke="black" stroke-width="4" stroke-miterlimit="10"/>
<path d="M480.687 298H464.664V310H480.687V298Z" stroke="black" stroke-width="4" stroke-miterlimit="10"/>
<path d="M477.682 310H467.668V407H477.682V310Z" stroke="black" stroke-width="4" stroke-miterlimit="10"/>
<path d="M430.615 407H414.592V419H430.615V407Z" stroke="black" stroke-width="4" stroke-miterlimit="10"/>
<path d="M430.615 298H414.592V310H430.615V298Z" stroke="black" stroke-width="4" stroke-miterlimit="10"/>
<path d="M427.61 310H417.596V407H427.61V310Z" stroke="black" stroke-width="4" stroke-miterlimit="10"/>
<path d="M380.544 407H364.521V419H380.544V407Z" stroke="black" stroke-width="4" stroke-miterlimit="10"/>
<path d="M380.544 298H364.521V310H380.544V298Z" stroke="black" stroke-width="4" stroke-miterlimit="10"/>
<path d="M377.54 310H367.525V407H377.54V310Z" stroke="black" stroke-width="4" stroke-miterlimit="10"/>
<path d="M330.472 407H314.449V419H330.472V407Z" stroke="black" stroke-width="4" stroke-miterlimit="10"/>
<path d="M330.472 298H314.449V310H330.472V298Z" stroke="black" stroke-width="4" stroke-miterlimit="10"/>
<path d="M327.467 310H317.453V407H327.467V310Z" stroke="black" stroke-width="4" stroke-miterlimit="10"/>
<path d="M279.4 407H263.377V419H279.4V407Z" stroke="black" stroke-width="4" stroke-miterlimit="10"/>
<path d="M279.4 298H263.377V310H279.4V298Z" stroke="black" stroke-width="4" stroke-miterlimit="10"/>
<path d="M276.395 310H266.381V407H276.395V310Z" stroke="black" stroke-width="4" stroke-miterlimit="10"/>
<path d="M229.328 407H213.305V419H229.328V407Z" stroke="black" stroke-width="4" stroke-miterlimit="10"/>
<path d="M229.328 298H213.305V310H229.328V298Z" stroke="black" stroke-width="4" stroke-miterlimit="10"/>
<path d="M226.323 310H216.309V407H226.323V310Z" stroke="black" stroke-width="4" stroke-miterlimit="10"/>
<path d="M42.0605 361H216.309" stroke="black" stroke-width="4" stroke-miterlimit="10"/>
<path d="M475.68 361H649.929" stroke="black" stroke-width="4" stroke-miterlimit="10"/>
<path d="M369.528 94H322.461V128H369.528V94Z" stroke="black" stroke-width="4" stroke-miterlimit="10"/>
<path d="M383.547 129H309.441V143H383.547V129Z" stroke="black" stroke-width="4" stroke-miterlimit="10"/>
<path d="M391.561 223V174H391.531C391.26 161.88 386.203 150.94 378.162 143H314.821C306.78 150.94 301.712 161.88 301.452 174H301.422V223" stroke="black" stroke-width="4" stroke-miterlimit="10"/>
<path d="M319.455 194C323.327 194 326.465 190.866 326.465 187C326.465 183.134 323.327 180 319.455 180C315.584 180 312.445 183.134 312.445 187C312.445 190.866 315.584 194 319.455 194Z" stroke="black" stroke-width="4" stroke-miterlimit="10"/>
<path d="M373.533 194C377.405 194 380.543 190.866 380.543 187C380.543 183.134 377.405 180 373.533 180C369.662 180 366.523 183.134 366.523 187C366.523 190.866 369.662 194 373.533 194Z" stroke="black" stroke-width="4" stroke-miterlimit="10"/>
<path d="M346.494 194C350.366 194 353.504 190.866 353.504 187C353.504 183.134 350.366 180 346.494 180C342.623 180 339.484 183.134 339.484 187C339.484 190.866 342.623 194 346.494 194Z" stroke="black" stroke-width="4" stroke-miterlimit="10"/>
<path d="M332.785 119.31C334.616 119.31 336.1 117.828 336.1 116C336.1 114.172 334.616 112.69 332.785 112.69C330.955 112.69 329.471 114.172 329.471 116C329.471 117.828 330.955 119.31 332.785 119.31Z" fill="black"/>
<path d="M359.201 119.31C361.032 119.31 362.516 117.828 362.516 116C362.516 114.172 361.032 112.69 359.201 112.69C357.371 112.69 355.887 114.172 355.887 116C355.887 117.828 357.371 119.31 359.201 119.31Z" fill="black"/>
<path d="M346.494 119.31C348.325 119.31 349.809 117.828 349.809 116C349.809 114.172 348.325 112.69 346.494 112.69C344.664 112.69 343.18 114.172 343.18 116C343.18 117.828 344.664 119.31 346.494 119.31Z" fill="black"/>
<path d="M346.495 50C349.261 50 351.503 47.7614 351.503 45C351.503 42.2386 349.261 40 346.495 40C343.73 40 341.488 42.2386 341.488 45C341.488 47.7614 343.73 50 346.495 50Z" fill="black"/>
<path d="M346.495 6C348.154 6 349.499 4.65685 349.499 3C349.499 1.34315 348.154 0 346.495 0C344.835 0 343.49 1.34315 343.49 3C343.49 4.65685 344.835 6 346.495 6Z" fill="black"/>
<path d="M346.494 42V4" stroke="black" stroke-width="4" stroke-miterlimit="10"/>
<path d="M301.43 166.5H390.056" stroke="black" stroke-width="4" stroke-miterlimit="10"/>
<path d="M331.473 65H359.513" stroke="black" stroke-width="4" stroke-miterlimit="10"/>
<path d="M323.463 104H368.527" stroke="black" stroke-width="4" stroke-miterlimit="10"/>
<path d="M341.488 74V94" stroke="black" stroke-width="4" stroke-miterlimit="10"/>
<path d="M350.5 74V94" stroke="black" stroke-width="4" stroke-miterlimit="10"/>
<path d="M193.718 229.05L178.736 228.72L186.517 215.93L193.718 229.05Z" fill="black"/>
<path d="M218.753 229.05L203.771 228.72L211.553 215.93L218.753 229.05Z" fill="black"/>
<path d="M242.788 229.05L227.807 228.72L235.588 215.93L242.788 229.05Z" fill="black"/>
<path d="M267.823 229.05L252.842 228.72L260.623 215.93L267.823 229.05Z" fill="black"/>
<path d="M447.079 229.05L432.098 228.72L439.879 215.93L447.079 229.05Z" fill="black"/>
<path d="M472.114 229.05L457.133 228.72L464.914 215.93L472.114 229.05Z" fill="black"/>
<path d="M496.149 229.05L481.168 228.72L488.949 215.93L496.149 229.05Z" fill="black"/>
<path d="M521.185 229.05L506.203 228.72L513.984 215.93L521.185 229.05Z" fill="black"/>
</svg>
